<svg xmlns="http://www.w3.org/2000/svg" height="48" viewBox="0 96 960 960" width="48"><path d="M479.989 567.565q-72.745 0-118.182-45.557T316.37 403.864q0-72.588 45.399-118.074 45.399-45.486 118.144-45.486t118.351 45.459q45.606 45.46 45.606 118.22 0 72.468-45.568 118.025t-118.313 45.557ZM220.63 926q-32.685 0-54.995-22.267-22.309-22.268-22.309-55.037V815.72q0-41.985 20.513-72.333 20.514-30.348 53.878-45.691 68.761-32 133.142-47.381 64.38-15.38 129.077-15.38 65.174 0 128.88 16 63.706 16 132.467 46.761 34.428 15.064 55.029 45.432 20.601 30.368 20.601 72.592v32.976q0 32.769-22.379 55.037Q772.154 926 739.37 926H220.63Z"/></svg>