<svg xmlns="http://www.w3.org/2000/svg" height="48" viewBox="0 96 960 960" width="48"><path d="M140.109 957.478q-30.746 0-54.025-23.349-23.28-23.35-23.28-54.194v-478.5q0-30.746 23.28-54.025 23.279-23.28 54.025-23.28h164.456v-97.891q0-30.844 23.28-54.194 23.279-23.349 54.025-23.349h196.26q30.746 0 54.025 23.349 23.28 23.35 23.28 54.194v97.891h164.456q30.845 0 54.194 23.28 23.35 23.279 23.35 54.025v478.5q0 30.844-23.35 54.194-23.349 23.349-54.194 23.349H140.109ZM381.87 324.13h196.26v-97.891H381.87v97.891Z"/></svg>