<svg xmlns="http://www.w3.org/2000/svg" height="48" viewBox="0 96 960 960" width="48"><path d="M140.109 912.674q-30.65 0-53.978-23.447-23.327-23.447-23.327-53.857V316.63q0-30.509 23.328-54.026 23.327-23.517 53.977-23.517h679.782q30.749 0 54.146 23.517 23.398 23.517 23.398 54.026v518.74q0 30.41-23.398 53.857-23.397 23.447-54.146 23.447H140.109ZM480 601.587q5.239 0 9.853-1.5t10.615-4.99l307.294-201.158q4.89-2.798 8.51-9.357 3.619-6.56 3.619-14.49 0-15.394-14.478-25.069-14.478-9.675-28.717.803L480 536.152 185.304 345.826q-15.239-9.239-30.217-1-14.978 8.239-14.978 24.68 0 7.445 4.119 13.981 4.12 6.535 8.404 10.55l306.905 201.06q5.996 3.49 10.61 4.99 4.614 1.5 9.853 1.5Z"/></svg>