<svg xmlns="http://www.w3.org/2000/svg" height="48" viewBox="0 96 960 960" width="48"><path d="M180.109 953.196q-30.746 0-54.025-23.28-23.28-23.279-23.28-54.025V276.109q0-30.845 23.28-54.194 23.279-23.35 54.025-23.35h246.869q16.396 0 27.774 11.294 11.378 11.295 11.378 27.49 0 16.196-11.378 27.478t-27.774 11.282H180.109v599.782h599.782V629.022q0-16.396 11.506-27.774 11.505-11.378 27.485-11.378 16.315 0 27.434 11.378t11.119 27.774v246.869q0 30.746-23.35 54.025-23.349 23.28-54.194 23.28H180.109Zm179.239-257.171q-10.522-11.426-11.022-26.6-.5-15.174 10.978-26.838l366.718-366.478H564.283q-15.636 0-26.894-11.506-11.259-11.505-11.259-27.485 0-16.315 11.259-27.434 11.258-11.119 26.894-11.119h254.76q16.131 0 27.262 11.13 11.13 11.131 11.13 27.262v254.76q0 15.636-11.294 26.894-11.295 11.259-27.49 11.259-16.196 0-27.478-11.259-11.282-11.258-11.282-26.894V330.978L413.413 697.696q-10.877 10.478-26.634 10.358-15.757-.119-27.431-12.029Z"/></svg>